<!-- Google Analytics Logo SVG -->
<svg width="32" height="32" viewBox="0 0 32 32" fill="none" xmlns="http://www.w3.org/2000/svg">
  <rect width="32" height="32" rx="6" fill="#FF6B35"/>
  <path d="M16 4C9.373 4 4 9.373 4 16s5.373 12 12 12 12-5.373 12-12S22.627 4 16 4zm0 2c5.523 0 10 4.477 10 10s-4.477 10-10 10S6 21.523 6 16 10.477 6 16 6z" fill="white"/>
  <circle cx="12" cy="20" r="2" fill="white"/>
  <circle cx="16" cy="16" r="3" fill="white"/>
  <circle cx="20" cy="12" r="2" fill="white"/>
  <path d="M12 18v-4c0-1.1.9-2 2-2s2 .9 2 2v4" stroke="white" stroke-width="1.5" fill="none"/>
  <path d="M16 14v-2c0-1.1.9-2 2-2s2 .9 2 2v2" stroke="white" stroke-width="1.5" fill="none"/>
</svg>
